<?xml version="1.0" standalone="no"?>
<!DOCTYPE svg PUBLIC "-//W3C//DTD SVG 20010904//EN"
 "http://www.w3.org/TR/2001/REC-SVG-20010904/DTD/svg10.dtd">
<svg version="1.0" xmlns="http://www.w3.org/2000/svg"
 width="1023.000000pt" height="528.000000pt" viewBox="0 0 1023.000000 528.000000"
 preserveAspectRatio="xMidYMid meet">

<g transform="translate(0.000000,528.000000) scale(0.100000,-0.100000)"
fill="#000000" stroke="none">
<path d="M4815 4541 c-209 -62 -311 -92 -608 -183 -87 -26 -97 -31 -85 -45 7
-9 66 -61 131 -115 l117 -99 -77 -92 c-678 -805 -1144 -1261 -1648 -1608 -79
-55 -307 -197 -480 -299 -431 -255 -739 -526 -863 -758 -187 -351 -34 -704
322 -738 44 -4 82 0 138 15 154 40 258 109 438 290 159 159 299 338 492 628
23 34 45 60 50 57 5 -3 89 -126 187 -273 99 -146 196 -287 216 -311 105 -125
260 -228 400 -266 82 -22 235 -29 324 -15 392 61 783 479 1061 1131 99 232
100 236 15 92 -257 -431 -532 -654 -758 -611 -83 15 -155 57 -240 138 -66 63
-118 134 -324 441 -136 201 -248 367 -249 369 -2 2 -18 -8 -36 -23 -205 -166
-466 -347 -731 -507 -136 -82 -186 -118 -211 -151 -18 -23 -80 -108 -139 -188
-226 -311 -397 -462 -520 -462 -83 0 -124 51 -115 142 10 101 132 250 325 397
159 121 256 185 528 348 518 311 750 490 1226 947 204 196 708 753 926 1023
37 47 20 54 178 -78 64 -55 119 -96 122 -93 9 9 133 896 133 949 0 9 -3 17 -7
16 -5 0 -111 -31 -238 -68z"/>
<path d="M3465 4105 c-432 -128 -517 -154 -521 -158 -3 -2 38 -42 91 -87 52
-46 95 -87 95 -91 0 -14 -393 -469 -405 -469 -5 0 -40 46 -76 103 -37 56 -97
149 -134 207 -166 257 -353 370 -610 370 -193 0 -364 -67 -519 -202 l-40 -35
54 -84 c55 -86 235 -360 485 -739 78 -118 158 -242 179 -275 21 -33 70 -108
109 -167 40 -59 77 -115 83 -125 11 -17 13 -17 49 0 64 31 254 156 395 260
142 106 300 236 300 247 0 4 -20 38 -44 76 -44 67 -44 69 -27 89 35 39 307
352 376 433 38 45 74 82 80 82 6 0 51 -36 100 -80 50 -44 92 -80 95 -80 3 0
23 109 44 243 21 133 49 305 62 382 28 169 28 165 7 164 -10 -1 -112 -29 -228
-64z"/>
<path d="M5524 3746 c-46 -20 -112 -83 -135 -129 -75 -145 10 -307 161 -307
89 0 128 16 190 79 46 46 59 66 70 110 25 106 -13 205 -93 242 -50 22 -147 25
-193 5z"/>
<path d="M4420 2429 l0 -891 48 40 c139 117 303 335 427 568 l35 67 0 554 0
553 -255 0 -255 0 0 -891z"/>
<path d="M7095 3093 c-82 -11 -211 -70 -250 -113 -10 -11 -23 -20 -29 -20 -34
0 -204 -218 -291 -373 -38 -67 -61 -100 -63 -88 -2 10 13 106 33 212 21 107
39 219 42 250 5 52 3 58 -23 83 -37 34 -95 50 -162 43 -90 -9 -110 -29 -171
-169 -81 -185 -265 -550 -334 -663 -77 -126 -157 -235 -193 -264 -59 -47 -114
-36 -141 27 -31 75 2 319 102 737 50 209 53 239 29 274 -52 74 -252 81 -311
10 -14 -17 -72 -213 -107 -359 -35 -144 -83 -444 -91 -565 -11 -171 18 -326
78 -414 61 -89 202 -119 331 -71 141 53 353 325 531 680 27 52 50 97 52 99 14
17 7 -36 -33 -250 -81 -435 -83 -451 -71 -478 27 -56 123 -88 225 -75 83 10
92 23 162 239 100 307 233 588 346 731 71 89 173 164 223 164 10 0 31 -14 45
-31 40 -47 36 -149 -14 -402 -73 -366 -75 -454 -13 -576 66 -128 241 -164 403
-83 66 33 187 152 255 251 27 39 52 71 57 71 4 0 19 -21 32 -47 41 -81 97
-136 178 -173 66 -31 82 -35 163 -35 191 0 324 97 431 313 19 41 38 71 41 68
3 -3 -2 -78 -12 -167 l-19 -161 -100 -81 c-404 -326 -631 -600 -704 -853 -58
-197 -24 -364 97 -477 63 -59 116 -84 209 -97 361 -51 620 238 737 825 26 133
46 270 71 510 l18 160 74 70 c159 150 384 423 407 495 16 49 -23 130 -61 130
-20 0 -43 -25 -151 -165 -89 -117 -228 -263 -239 -252 -18 18 80 655 127 820
38 136 36 163 -16 199 -86 60 -218 56 -273 -7 -17 -18 -32 -39 -35 -47 -3 -10
-8 -11 -23 -1 -126 84 -168 97 -294 90 -139 -6 -250 -59 -373 -176 -154 -145
-240 -300 -297 -539 -24 -99 -43 -139 -125 -257 -97 -139 -153 -185 -210 -171
-59 15 -60 76 -6 328 61 284 74 377 69 487 -9 159 -61 259 -160 308 -45 22
-121 34 -173 26z m1455 -310 c50 -29 53 -47 26 -155 -30 -119 -84 -256 -143
-365 -97 -180 -214 -259 -305 -205 -139 81 -76 427 113 627 85 89 133 115 217
115 42 0 74 -6 92 -17z m-54 -1340 c-3 -16 -10 -66 -16 -113 -16 -124 -57
-332 -86 -430 -49 -163 -130 -297 -205 -335 -67 -35 -158 -5 -186 63 -20 48
-13 158 16 232 29 77 114 222 174 300 57 73 286 310 300 310 5 0 6 -12 3 -27z"/>
<path d="M3760 2326 l0 -355 83 -129 c119 -185 151 -225 225 -287 60 -50 134
-85 179 -85 11 0 13 111 13 604 l0 605 -250 1 -250 0 0 -354z"/>
</g>
</svg>
